<svg width="16" height="17" viewBox="0 0 16 17" fill="none" xmlns="http://www.w3.org/2000/svg">
<path d="M14.6667 8.21081C14.6667 11.7329 11.6815 14.5886 8.00004 14.5886C7.56717 14.5892 7.13551 14.5491 6.71031 14.4693C6.40426 14.4118 6.25123 14.3831 6.14439 14.3994C6.03755 14.4157 5.88616 14.4962 5.58337 14.6573C4.7268 15.1128 3.72801 15.2737 2.76745 15.095C3.13253 14.6459 3.38187 14.1071 3.49189 13.5295C3.55856 13.1762 3.39337 12.833 3.14597 12.5817C2.02226 11.4407 1.33337 9.90307 1.33337 8.21081C1.33337 4.68872 4.31856 1.83301 8.00004 1.83301C11.6815 1.83301 14.6667 4.68872 14.6667 8.21081Z" stroke="#727A86" stroke-linejoin="round"/>
<path d="M7.99704 8.5H8.00304M10.6607 8.5H10.6667M5.33337 8.5H5.33935" stroke="#727A86" stroke-width="1.33333" stroke-linecap="round" stroke-linejoin="round"/>
</svg>
