<svg width="58" height="58" viewBox="0 0 58 58" fill="none" xmlns="http://www.w3.org/2000/svg">
<rect width="58" height="58" rx="29" fill="#ECEEFE"/>
<rect x="5.15" y="5.15" width="47.7" height="47.7" rx="23.85" fill="#E2E6FD"/>
<rect x="5.15" y="5.15" width="47.7" height="47.7" rx="23.85" stroke="#E2E6FD" stroke-width="0.3"/>
<path fill-rule="evenodd" clip-rule="evenodd" d="M24.574 21.336C24.8479 20.9251 25.2191 20.5881 25.6545 20.3551C26.0899 20.122 26.5761 20 27.07 20H30.93C31.4239 20 31.9101 20.122 32.3455 20.3551C32.7809 20.5881 33.1521 20.9251 33.426 21.336L34.238 22.555C34.3293 22.6919 34.4531 22.8042 34.5982 22.8818C34.7434 22.9594 34.9054 23 35.07 23H36C36.7956 23 37.5587 23.3161 38.1213 23.8787C38.6839 24.4413 39 25.2044 39 26V35C39 35.7956 38.6839 36.5587 38.1213 37.1213C37.5587 37.6839 36.7956 38 36 38H22C21.2044 38 20.4413 37.6839 19.8787 37.1213C19.3161 36.5587 19 35.7956 19 35V26C19 25.2044 19.3161 24.4413 19.8787 23.8787C20.4413 23.3161 21.2044 23 22 23H22.93C23.0946 23 23.2566 22.9594 23.4018 22.8818C23.5469 22.8042 23.6707 22.6919 23.762 22.555L24.574 21.336ZM27 30C27 29.4696 27.2107 28.9609 27.5858 28.5858C27.9609 28.2107 28.4696 28 29 28C29.5304 28 30.0391 28.2107 30.4142 28.5858C30.7893 28.9609 31 29.4696 31 30C31 30.5304 30.7893 31.0391 30.4142 31.4142C30.0391 31.7893 29.5304 32 29 32C28.4696 32 27.9609 31.7893 27.5858 31.4142C27.2107 31.0391 27 30.5304 27 30ZM29 26C27.9391 26 26.9217 26.4214 26.1716 27.1716C25.4214 27.9217 25 28.9391 25 30C25 31.0609 25.4214 32.0783 26.1716 32.8284C26.9217 33.5786 27.9391 34 29 34C30.0609 34 31.0783 33.5786 31.8284 32.8284C32.5786 32.0783 33 31.0609 33 30C33 28.9391 32.5786 27.9217 31.8284 27.1716C31.0783 26.4214 30.0609 26 29 26Z" fill="#4055F1"/>
</svg>
