<svg width="58" height="58" viewBox="0 0 58 58" fill="none" xmlns="http://www.w3.org/2000/svg">
<rect width="58" height="58" rx="29" fill="#F5F6F7"/>
<rect x="5.15" y="5.15" width="47.7" height="47.7" rx="23.85" fill="#F0F1F4"/>
<rect x="5.15" y="5.15" width="47.7" height="47.7" rx="23.85" stroke="#F0F1F4" stroke-width="0.3"/>
<path d="M25.125 19C24.5614 19 24.0209 19.2239 23.6224 19.6224C23.2239 20.0209 23 20.5614 23 21.125V36.875C23 37.4386 23.2239 37.9791 23.6224 38.3776C24.0209 38.7761 24.5614 39 25.125 39H32.875C33.4386 39 33.9791 38.7761 34.3776 38.3776C34.7761 37.9791 35 37.4386 35 36.875V21.125C35 20.5614 34.7761 20.0209 34.3776 19.6224C33.9791 19.2239 33.4386 19 32.875 19H25.125ZM27.625 34.75H30.375C30.5408 34.75 30.6997 34.8158 30.8169 34.9331C30.9342 35.0503 31 35.2092 31 35.375C31 35.5408 30.9342 35.6997 30.8169 35.8169C30.6997 35.9342 30.5408 36 30.375 36H27.625C27.4592 36 27.3003 35.9342 27.1831 35.8169C27.0658 35.6997 27 35.5408 27 35.375C27 35.2092 27.0658 35.0503 27.1831 34.9331C27.3003 34.8158 27.4592 34.75 27.625 34.75Z" fill="#98A2B3"/>
</svg>
