<svg width="32" height="33" viewBox="0 0 32 33" fill="none" xmlns="http://www.w3.org/2000/svg">
<path d="M27.766 16.7763C27.766 15.9605 27.6999 15.1404 27.5588 14.3379H16.24V18.9589H22.7217C22.4528 20.4492 21.5885 21.7676 20.323 22.6054V25.6037H24.19C26.4608 23.5137 27.766 20.4272 27.766 16.7763Z" fill="#4285F4"/>
<path d="M16.24 28.5013C19.4764 28.5013 22.2058 27.4387 24.1944 25.6044L20.3274 22.606C19.2516 23.338 17.8626 23.7525 16.2444 23.7525C13.1138 23.7525 10.4593 21.6404 9.50693 18.8008H5.51648V21.8917C7.55359 25.9439 11.7028 28.5013 16.24 28.5013Z" fill="#34A853"/>
<path d="M9.50253 18.8007C8.99987 17.3103 8.99987 15.6965 9.50253 14.2062V11.1152H5.51649C3.81449 14.506 3.81449 18.5009 5.51649 21.8916L9.50253 18.8007Z" fill="#FBBC04"/>
<path d="M16.24 9.24966C17.9508 9.2232 19.6043 9.86697 20.8433 11.0487L24.2694 7.62262C22.1 5.5855 19.2207 4.46553 16.24 4.50081C11.7028 4.50081 7.55359 7.05822 5.51648 11.1148L9.50252 14.2058C10.4505 11.3617 13.1094 9.24966 16.24 9.24966Z" fill="#EA4335"/>
</svg>
