<svg width="58" height="58" viewBox="0 0 58 58" fill="none" xmlns="http://www.w3.org/2000/svg">
<rect width="58" height="58" rx="29" fill="#E6F4EB"/>
<rect x="5.15" y="5.15" width="47.7" height="47.7" rx="23.85" fill="#DAEFE1"/>
<rect x="5.15" y="5.15" width="47.7" height="47.7" rx="23.85" stroke="#DAEFE1" stroke-width="0.3"/>
<path d="M25.0763 24.2599L25.1713 24.3429L33.6573 32.8279C33.7685 32.939 33.852 33.0748 33.9009 33.2242C33.9498 33.3736 33.9628 33.5325 33.9389 33.6878C33.9149 33.8432 33.8546 33.9907 33.763 34.1185C33.6713 34.2462 33.5508 34.3505 33.4113 34.4229L33.2953 34.4729L22.9103 38.2999C20.9583 39.0199 19.0573 37.1849 19.6503 35.2359L19.7003 35.0899L23.5263 24.7049C23.5769 24.5674 23.6571 24.4426 23.7612 24.3395C23.8654 24.2363 23.9909 24.1574 24.129 24.1081C24.267 24.0589 24.4142 24.0406 24.5601 24.0546C24.706 24.0685 24.8471 24.1144 24.9733 24.1889L25.0763 24.2599ZM34.1073 28.6039C35.0183 28.6519 36.2673 28.8439 37.3533 29.4959C37.5735 29.6265 37.7352 29.8364 37.8052 30.0826C37.8752 30.3288 37.8481 30.5925 37.7296 30.8193C37.6111 31.0461 37.41 31.2189 37.168 31.302C36.9259 31.3851 36.6612 31.3722 36.4283 31.2659L36.3243 31.2109C35.6423 30.8009 34.7703 30.6409 34.0023 30.6009C33.6858 30.5834 33.3686 30.5848 33.0523 30.6049L32.7363 30.6359C32.4754 30.6696 32.2118 30.5991 32.0025 30.4398C31.7933 30.2805 31.6552 30.0451 31.6182 29.7847C31.5813 29.5243 31.6484 29.2598 31.8051 29.0485C31.9618 28.8372 32.1954 28.6962 32.4553 28.6559C33.003 28.5853 33.5562 28.5675 34.1073 28.6029M36.1323 25.8169C36.3871 25.8175 36.6321 25.9152 36.8172 26.0903C37.0024 26.2653 37.1137 26.5045 37.1285 26.7588C37.1433 27.0132 37.0605 27.2636 36.8969 27.459C36.7333 27.6543 36.5013 27.7798 36.2483 27.8099L36.1323 27.8169H35.4243C35.1695 27.8164 34.9245 27.7186 34.7394 27.5436C34.5542 27.3685 34.4429 27.1294 34.4281 26.875C34.4133 26.6207 34.4961 26.3703 34.6597 26.1749C34.8233 25.9796 35.0553 25.854 35.3083 25.8239L35.4243 25.8169H36.1323ZM32.9503 25.0499C33.1225 25.2221 33.2259 25.4512 33.2412 25.6943C33.2565 25.9373 33.1826 26.1775 33.0333 26.3699L32.9503 26.4639L31.8893 27.5249C31.7093 27.7043 31.4679 27.8084 31.2139 27.8162C30.96 27.8239 30.7126 27.7347 30.522 27.5667C30.3315 27.3987 30.212 27.1644 30.1879 26.9115C30.1638 26.6585 30.2369 26.4059 30.3923 26.2049L30.4753 26.1109L31.5353 25.0509C31.6282 24.958 31.7385 24.8842 31.8599 24.8339C31.9813 24.7835 32.1114 24.7576 32.2428 24.7576C32.3742 24.7576 32.5043 24.7835 32.6257 24.8339C32.7471 24.8842 32.8574 24.957 32.9503 25.0499ZM30.3633 19.7849C30.8113 21.1309 30.5713 22.6049 30.2913 23.6349C30.1237 24.2773 29.8926 24.9014 29.6013 25.4979C29.4829 25.7353 29.275 25.9159 29.0234 26C28.7719 26.0841 28.4972 26.0649 28.2598 25.9464C28.0224 25.828 27.8418 25.6202 27.7577 25.3686C27.6736 25.117 27.6929 24.8423 27.8113 24.6049C28.044 24.1258 28.2282 23.6247 28.3613 23.1089C28.5883 22.2769 28.7023 21.3739 28.5273 20.6339L28.4663 20.4179C28.4227 20.2929 28.4044 20.1604 28.4124 20.0282C28.4205 19.896 28.4547 19.7667 28.5131 19.6479C28.5715 19.529 28.6529 19.4229 28.7527 19.3358C28.8524 19.2487 28.9685 19.1822 29.0941 19.1403C29.2197 19.0984 29.3524 19.0818 29.4845 19.0916C29.6166 19.1014 29.7454 19.1373 29.8635 19.1973C29.9815 19.2573 30.0865 19.3401 30.1723 19.441C30.2581 19.5418 30.323 19.6588 30.3633 19.7849ZM35.7783 22.2229C35.9658 22.4105 36.0711 22.6648 36.0711 22.9299C36.0711 23.1951 35.9658 23.4494 35.7783 23.6369L35.0713 24.3439C34.9791 24.4394 34.8687 24.5156 34.7467 24.568C34.6247 24.6204 34.4935 24.648 34.3607 24.6492C34.2279 24.6503 34.0962 24.625 33.9733 24.5748C33.8504 24.5245 33.7388 24.4502 33.6449 24.3563C33.551 24.2624 33.4768 24.1508 33.4265 24.0279C33.3762 23.905 33.3509 23.7733 33.352 23.6405C33.3532 23.5078 33.3808 23.3765 33.4332 23.2545C33.4856 23.1325 33.5618 23.0222 33.6573 22.9299L34.3643 22.2229C34.5518 22.0355 34.8061 21.9301 35.0713 21.9301C35.3365 21.9301 35.5908 22.0355 35.7783 22.2229Z" fill="#099137"/>
</svg>
