<svg width="20" height="20" viewBox="0 0 20 20" fill="none" xmlns="http://www.w3.org/2000/svg">
<path fill-rule="evenodd" clip-rule="evenodd" d="M15.4165 1.0415C15.7617 1.0415 16.0415 1.32133 16.0415 1.6665V3.95817H18.3332C18.6783 3.95817 18.9582 4.23799 18.9582 4.58317C18.9582 4.92835 18.6783 5.20817 18.3332 5.20817H16.0415V7.49984C16.0415 7.84502 15.7617 8.12484 15.4165 8.12484C15.0713 8.12484 14.7915 7.84502 14.7915 7.49984V5.20817H12.4998C12.1547 5.20817 11.8748 4.92835 11.8748 4.58317C11.8748 4.23799 12.1547 3.95817 12.4998 3.95817H14.7915V1.6665C14.7915 1.32133 15.0713 1.0415 15.4165 1.0415Z" fill="#98A2B3"/>
<path fill-rule="evenodd" clip-rule="evenodd" d="M9.99984 1.0415L9.95202 1.0415C8.02836 1.04149 6.52083 1.04148 5.34459 1.19963C4.14065 1.36149 3.19063 1.69928 2.44495 2.44495C1.69928 3.19063 1.36149 4.14065 1.19963 5.34459C1.04148 6.52083 1.04149 8.02836 1.0415 9.95202V10.0477C1.04149 11.9713 1.04148 13.4788 1.19963 14.6551C1.36149 15.859 1.69928 16.809 2.44495 17.5547C3.19063 18.3004 4.14065 18.6382 5.34459 18.8C6.52083 18.9582 8.02836 18.9582 9.95203 18.9582H10.0476C11.9713 18.9582 13.4788 18.9582 14.6551 18.8C15.859 18.6382 16.809 18.3004 17.5547 17.5547C18.3004 16.809 18.6382 15.859 18.8 14.6551C18.9582 13.4788 18.9582 11.9713 18.9582 10.0476V9.99984C18.9582 9.65466 18.6783 9.37484 18.3332 9.37484C17.988 9.37484 17.7082 9.65466 17.7082 9.99984C17.7082 11.9817 17.7068 13.4052 17.5612 14.4885C17.5554 14.5313 17.5495 14.5733 17.5433 14.6147L15.2317 12.5342C14.1488 11.5596 12.5362 11.4626 11.3443 12.3003L11.0958 12.4749C10.6817 12.7659 10.1182 12.7171 9.76029 12.3592L6.18552 8.78444C5.23934 7.83827 3.72162 7.78773 2.7146 8.66886L2.29232 9.03836C2.29611 7.5448 2.31754 6.41069 2.43848 5.51115C2.58171 4.44582 2.85412 3.80355 3.32883 3.32883C3.80355 2.85412 4.44582 2.58171 5.51115 2.43848C6.59447 2.29283 8.01798 2.2915 9.99984 2.2915C10.345 2.2915 10.6248 2.01168 10.6248 1.6665C10.6248 1.32133 10.345 1.0415 9.99984 1.0415ZM2.43848 14.4885C2.58171 15.5539 2.85412 16.1961 3.32883 16.6708C3.80355 17.1456 4.44582 17.418 5.51115 17.5612C6.59447 17.7068 8.01798 17.7082 9.99984 17.7082C11.9817 17.7082 13.4052 17.7068 14.4885 17.5612C15.5539 17.418 16.1961 17.1456 16.6708 16.6708C16.8738 16.4679 17.0398 16.2343 17.1745 15.9502C17.1421 15.9304 17.111 15.9073 17.0817 15.881L14.3955 13.4633C13.7457 12.8786 12.7782 12.8204 12.063 13.323L11.8145 13.4976C10.9034 14.1379 9.66386 14.0306 8.8764 13.2431L5.30163 9.66832C4.82079 9.18748 4.04949 9.1618 3.53772 9.60959L2.29182 10.6997C2.29397 12.3235 2.31058 13.5372 2.43848 14.4885Z" fill="#98A2B3"/>
</svg>
