<svg width="58" height="58" viewBox="0 0 58 58" fill="none" xmlns="http://www.w3.org/2000/svg">
<rect width="58" height="58" rx="29" fill="#FEF6E8"/>
<rect x="5.15" y="5.15" width="47.7" height="47.7" rx="23.85" fill="#FDF1DC"/>
<rect x="5.15" y="5.15" width="47.7" height="47.7" rx="23.85" stroke="#FBE2B7" stroke-width="0.3"/>
<path d="M21.616 37C21.1553 37 20.771 36.846 20.463 36.538C20.155 36.23 20.0007 35.8453 20 35.384V31.5H27V33H31V31.5H38V35.385C38 35.845 37.846 36.229 37.538 36.537C37.23 36.845 36.8457 36.9993 36.385 37H21.616ZM28 32V30H30V32H28ZM20 30.5V25.616C20 25.1553 20.1543 24.771 20.463 24.463C20.7717 24.155 21.1557 24.0007 21.615 24H26V22.615C26 22.155 26.1543 21.7707 26.463 21.462C26.7717 21.1533 27.156 20.9993 27.616 21H30.385C30.845 21 31.2293 21.154 31.538 21.462C31.8467 21.77 32.0007 22.1543 32 22.615V24H36.385C36.845 24 37.229 24.1543 37.537 24.463C37.845 24.7717 37.9993 25.156 38 25.616V30.5H31V29H27V30.5H20ZM27 24H31V22.615C31 22.4617 30.936 22.3207 30.808 22.192C30.68 22.0633 30.539 21.9993 30.385 22H27.615C27.4617 22 27.3207 22.064 27.192 22.192C27.0633 22.32 26.9993 22.461 27 22.615V24Z" fill="#F3A218"/>
</svg>
